<!-- https://www.svgrepo.com/svg/123613/sportive-medal-symbol-with-a-star -->
<svg fill="#000000" version="1.1" id="Capa_1" xmlns="http://www.w3.org/2000/svg" xmlns:xlink="http://www.w3.org/1999/xlink" 
	 width="24px" height="24px" viewBox="0 0 31.63 31.63" xml:space="preserve"
	>
<g>
	<g>
		<path d="M16.211,16.674c-0.06-0.162-0.213-0.27-0.385-0.27c-0.172,0-0.326,0.106-0.386,0.27l-1.34,3.615l-3.852,0.156
			c-0.172,0.008-0.322,0.121-0.375,0.283c-0.053,0.164,0.001,0.344,0.136,0.451l3.025,2.393l-1.042,3.713
			c-0.046,0.164,0.015,0.342,0.154,0.443c0.139,0.101,0.327,0.104,0.47,0.01l3.208-2.137l3.209,2.137
			c0.145,0.096,0.331,0.092,0.471-0.01c0.14-0.103,0.201-0.279,0.153-0.443l-1.041-3.713l3.025-2.393
			c0.135-0.107,0.188-0.287,0.136-0.451s-0.201-0.275-0.375-0.283l-3.854-0.156L16.211,16.674z"/>
		<polygon points="3.854,0 10.479,9.253 13.193,9.253 15.25,6.376 10.668,0 		"/>
		<path d="M20.43,13.525V10.28L27.776,0h-6.812l-8.428,11.796h6.801v1.23c-1.09-0.428-2.271-0.67-3.511-0.67
			c-1.241,0-2.424,0.243-3.513,0.67v-1.98l0.725-1.089h-1.814v3.568c-2.999,1.633-5.034,4.813-5.034,8.467
			c0,5.322,4.314,9.638,9.637,9.638c5.323,0,9.635-4.313,9.635-9.638C25.463,18.338,23.428,15.158,20.43,13.525z M15.827,30.422
			c-4.648,0-8.428-3.781-8.428-8.43c0-4.646,3.78-8.428,8.428-8.428c4.647,0,8.427,3.782,8.427,8.428
			C24.254,26.641,20.475,30.422,15.827,30.422z"/>
	</g>
</g>
</svg>