<svg xmlns="http://www.w3.org/2000/svg" viewBox="0 0 505.94 552.65">
    <defs>
        <style>
            .cls-1 {
                fill: #014286 !important;
            }

            .cls-2 {
                fill: #e30953;
            }
        </style>
    </defs>
    <g id="Layer_2" data-name="Layer 2">
        <g id="Calque_2" data-name="Calque 2">
            <g id="g947">
                <path id="path835" class="cls-1"
                    d="M217.29,327.19c1.86-5.95-4.4-15.07-20.66-23.58-16.67-8.72-74.17-22.83-100.12,14.65-17.1,24.69-7.37,53.07,17.9,66.21,48.42,25.14,79.17,24.25,115.65,56.28,31.26,27.46,48.37,56,55.09,111.9H293s6.06-99-74.41-148.92c-51.9-32.24-92.34-31.67-95.71-57.8-4.09-31.69,41-40.5,94.4-18.74Z" />
                <path id="path837" class="cls-1"
                    d="M77.13,353.38c-35.28-12-53.89-53.77-40.89-96.81,16.57-54.79,83.78-61.95,128.41-42.8,47.52,20.39,92.58,61.55,115.81,108,1.9,3.8,4.56,2.27,3.53-1.63-1.44-5.4-26.87-91.43-115-133.76S16,199.55,3.7,248c-11.67,45.85,5,89.47,39.62,106.36,24.79,12.1,33.81-.95,33.81-.95Z" />
                <path id="path839" class="cls-1"
                    d="M505.94,113c-19.79-11.87-62.65-20-101.54,7.35-25.42,17.86-47.24,61.38-68.16,92.5s-29.92,38-41.42,40.59c-5.14,1.16-6.18,4.09-1.37,4.61,5.78.62,39,1.83,63.16-29.92,27.72-36.46,55.72-100.41,99.56-95.88,0,0-28,18.1-33.65,87.11s-13.87,128.41-44.41,166.32-56,45.93-67.69,49.85c-4.24,1.42-3.39,3.81,0,4s61.44,3,102.76-60c23.33-35.53,32-89.09,34.51-133.22,0,0,12.83,8.49,26.6,1.66,15-7.45,18.39-25.71,13-39s-20.74-41.42-18.39-59.12c2.76-20.87,18.38-31.68,37-36.78Z" />
                <path id="path841" class="cls-1"
                    d="M263.65,375.26c-.89-.75-1.15-2.33,1.88-2.22,32.64,1.22,53.9-23.56,73-56.27,12-20.5,22.17-25,33.79-22.61a138,138,0,0,1-6.21,19c-8.32,20.39-21.37,40.57-35.68,51.69-13,10.09-24.39,15.81-42.44,16.23-11.82.26-20.28-2.4-24.35-5.87Z" />
                <path id="path843" class="cls-2"
                    d="M498.38,91.87a56.27,56.27,0,0,0-5.46-27.11c-6.85-14.52-16.22-21.37-30-31.9-9-6.91-19.08-15.58-23-26.07-1.69,8.65.84,18.19,6.47,24.41-14.75-6.52-27.15-14.71-34.48-29-2.26,11,3.51,23.54,9.12,33.57-14.68-3-34.09-25.35-36.29-35.75-4.34,17.07-2,62.52,35.34,76,29.14,10.54,53.63,6.37,78.3,15.88" />
            </g>
        </g>
    </g>
</svg>